<svg width="144" height="115" viewBox="0 0 144 115" fill="none" xmlns="http://www.w3.org/2000/svg">
<path d="M2.76925 114.736C4.29866 114.736 5.5385 113.329 5.5385 111.593C5.5385 109.857 4.29866 108.449 2.76925 108.449C1.23983 108.449 0 109.857 0 111.593C0 113.329 1.23983 114.736 2.76925 114.736Z" fill="#2B3640"/>
<path d="M2.76925 78.5831C4.29866 78.5831 5.5385 77.1757 5.5385 75.4396C5.5385 73.7035 4.29866 72.2961 2.76925 72.2961C1.23983 72.2961 0 73.7035 0 75.4396C0 77.1757 1.23983 78.5831 2.76925 78.5831Z" fill="#2B3640"/>
<path d="M2.76925 42.4371C4.29866 42.4371 5.5385 41.0297 5.5385 39.2936C5.5385 37.5575 4.29866 36.1501 2.76925 36.1501C1.23983 36.1501 0 37.5575 0 39.2936C0 41.0297 1.23983 42.4371 2.76925 42.4371Z" fill="#2B3640"/>
<path d="M2.76925 6.28694C4.29866 6.28694 5.5385 4.87956 5.5385 3.14347C5.5385 1.40738 4.29866 0 2.76925 0C1.23983 0 0 1.40738 0 3.14347C0 4.87956 1.23983 6.28694 2.76925 6.28694Z" fill="#2B3640"/>
<path d="M37.3845 114.736C38.9139 114.736 40.1537 113.329 40.1537 111.593C40.1537 109.857 38.9139 108.449 37.3845 108.449C35.8551 108.449 34.6152 109.857 34.6152 111.593C34.6152 113.329 35.8551 114.736 37.3845 114.736Z" fill="#2B3640"/>
<path d="M37.3845 78.5831C38.9139 78.5831 40.1537 77.1757 40.1537 75.4396C40.1537 73.7035 38.9139 72.2961 37.3845 72.2961C35.8551 72.2961 34.6152 73.7035 34.6152 75.4396C34.6152 77.1757 35.8551 78.5831 37.3845 78.5831Z" fill="#2B3640"/>
<path d="M37.3845 42.4371C38.9139 42.4371 40.1537 41.0297 40.1537 39.2936C40.1537 37.5575 38.9139 36.1501 37.3845 36.1501C35.8551 36.1501 34.6152 37.5575 34.6152 39.2936C34.6152 41.0297 35.8551 42.4371 37.3845 42.4371Z" fill="#2B3640"/>
<path d="M37.3845 6.28694C38.9139 6.28694 40.1537 4.87956 40.1537 3.14347C40.1537 1.40738 38.9139 0 37.3845 0C35.8551 0 34.6152 1.40738 34.6152 3.14347C34.6152 4.87956 35.8551 6.28694 37.3845 6.28694Z" fill="#2B3640"/>
<path d="M72.0017 114.736C73.5311 114.736 74.7709 113.329 74.7709 111.593C74.7709 109.857 73.5311 108.449 72.0017 108.449C70.4723 108.449 69.2324 109.857 69.2324 111.593C69.2324 113.329 70.4723 114.736 72.0017 114.736Z" fill="#2B3640"/>
<path d="M72.0017 78.5831C73.5311 78.5831 74.7709 77.1757 74.7709 75.4396C74.7709 73.7035 73.5311 72.2961 72.0017 72.2961C70.4723 72.2961 69.2324 73.7035 69.2324 75.4396C69.2324 77.1757 70.4723 78.5831 72.0017 78.5831Z" fill="#2B3640"/>
<path d="M72.0017 42.4371C73.5311 42.4371 74.7709 41.0297 74.7709 39.2936C74.7709 37.5575 73.5311 36.1501 72.0017 36.1501C70.4723 36.1501 69.2324 37.5575 69.2324 39.2936C69.2324 41.0297 70.4723 42.4371 72.0017 42.4371Z" fill="#2B3640"/>
<path d="M72.0017 6.28694C73.5311 6.28694 74.7709 4.87956 74.7709 3.14347C74.7709 1.40738 73.5311 0 72.0017 0C70.4723 0 69.2324 1.40738 69.2324 3.14347C69.2324 4.87956 70.4723 6.28694 72.0017 6.28694Z" fill="#2B3640"/>
<path d="M106.617 114.736C108.146 114.736 109.386 113.329 109.386 111.593C109.386 109.857 108.146 108.449 106.617 108.449C105.087 108.449 103.848 109.857 103.848 111.593C103.848 113.329 105.087 114.736 106.617 114.736Z" fill="#2B3640"/>
<path d="M106.617 78.5831C108.146 78.5831 109.386 77.1757 109.386 75.4396C109.386 73.7035 108.146 72.2961 106.617 72.2961C105.087 72.2961 103.848 73.7035 103.848 75.4396C103.848 77.1757 105.087 78.5831 106.617 78.5831Z" fill="#2B3640"/>
<path d="M106.617 42.4368C108.146 42.4368 109.386 41.0295 109.386 39.2934C109.386 37.5573 108.146 36.1499 106.617 36.1499C105.087 36.1499 103.848 37.5573 103.848 39.2934C103.848 41.0295 105.087 42.4368 106.617 42.4368Z" fill="#2B3640"/>
<path d="M106.617 6.28694C108.146 6.28694 109.386 4.87956 109.386 3.14347C109.386 1.40738 108.146 0 106.617 0C105.087 0 103.848 1.40738 103.848 3.14347C103.848 4.87956 105.087 6.28694 106.617 6.28694Z" fill="#2B3640"/>
<path d="M141.23 114.736C142.76 114.736 143.999 113.329 143.999 111.593C143.999 109.857 142.76 108.449 141.23 108.449C139.701 108.449 138.461 109.857 138.461 111.593C138.461 113.329 139.701 114.736 141.23 114.736Z" fill="#2B3640"/>
<path d="M141.23 78.5831C142.76 78.5831 143.999 77.1757 143.999 75.4396C143.999 73.7035 142.76 72.2961 141.23 72.2961C139.701 72.2961 138.461 73.7035 138.461 75.4396C138.461 77.1757 139.701 78.5831 141.23 78.5831Z" fill="#2B3640"/>
<path d="M141.23 42.4368C142.76 42.4368 143.999 41.0295 143.999 39.2934C143.999 37.5573 142.76 36.1499 141.23 36.1499C139.701 36.1499 138.461 37.5573 138.461 39.2934C138.461 41.0295 139.701 42.4368 141.23 42.4368Z" fill="#2B3640"/>
<path d="M141.23 6.28694C142.76 6.28694 143.999 4.87956 143.999 3.14347C143.999 1.40738 142.76 0 141.23 0C139.701 0 138.461 1.40738 138.461 3.14347C138.461 4.87956 139.701 6.28694 141.23 6.28694Z" fill="#2B3640"/>
</svg>
